<svg xmlns="http://www.w3.org/2000/svg" version="1.1" xmlns:xlink="http://www.w3.org/1999/xlink" xmlns:svgjs="http://svgjs.dev/svgjs" width="512" height="512"><svg xmlns="http://www.w3.org/2000/svg" shape-rendering="geometricPrecision" text-rendering="geometricPrecision" image-rendering="optimizeQuality" fill-rule="evenodd" clip-rule="evenodd" viewBox="0 0 512 512">
    <path fill="#FFFFFF" fill-rule="nonzero" d="M255.997 0c70.687 0 134.694 28.657 181.016 74.986C483.343 121.315 512 185.315 512 256.003c0 70.687-28.657 134.688-74.987 181.01C390.691 483.343 326.684 512 255.997 512s-134.688-28.657-181.011-74.987C28.657 390.691 0 326.684 0 256.003c0-70.688 28.657-134.688 74.986-181.017C121.309 28.657 185.315 0 255.997 0zM241.04 348.69h30.414l69.942-185.381h-30.907l-49.586 139.272a601.746 601.746 0 00-2.941 9.486c-.983 3.346-1.715 6.251-2.21 8.705h-.487a38.571 38.571 0 00-.816-3.805c-.411-1.512-.864-3.144-1.31-4.865a187.577 187.577 0 00-1.554-5.108 193.96 193.96 0 00-1.673-4.657l-49.14-139.028h-30.169L241.04 348.69zM420.306 91.693c-42.042-42.048-100.142-68.055-164.309-68.055-64.162 0-122.262 26.007-164.304 68.055-42.042 42.042-68.055 100.142-68.055 164.31 0 64.161 26.007 122.261 68.055 164.303 42.042 42.048 100.136 68.056 164.304 68.056 64.167 0 122.267-26.008 164.309-68.056 42.048-42.042 68.056-100.136 68.056-164.303 0-64.168-26.014-122.268-68.056-164.31z"></path>
</svg><style>@media (prefers-color-scheme: light) { :root { filter: none; } }
@media (prefers-color-scheme: dark) { :root { filter: none; } }
</style></svg>